<?xml version="1.0" encoding="iso-8859-1"?>
<!-- Generator: Adobe Illustrator 19.0.0, SVG Export Plug-In . SVG Version: 6.00 Build 0)  -->
<svg version="1.1" id="Capa_1" xmlns="http://www.w3.org/2000/svg" xmlns:xlink="http://www.w3.org/1999/xlink" x="0px" y="0px"
	 viewBox="0 0 512 512" style="enable-background:new 0 0 512 512;" xml:space="preserve">
<g>
	<g>
		<circle cx="409.8" cy="79.656" r="7.515"/>
	</g>
</g>
<g>
	<g>
		<circle cx="441.362" cy="79.656" r="7.515"/>
	</g>
</g>
<g>
	<g>
		<circle cx="472.924" cy="79.656" r="7.515"/>
	</g>
</g>
<g>
	<g>
		<path d="M504.485,40.078H7.515C3.364,40.078,0,43.443,0,47.593v416.814c0,4.15,3.364,7.515,7.515,7.515h496.971
			c4.151,0,7.515-3.365,7.515-7.515V47.593C512,43.443,508.636,40.078,504.485,40.078z M496.971,104.203H383.75
			c-4.151,0-7.515,3.365-7.515,7.515s3.364,7.515,7.515,7.515h113.221v337.659H15.029V119.233h333.652
			c4.151,0,7.515-3.365,7.515-7.515s-3.364-7.515-7.515-7.515H15.029V55.108h481.941V104.203z"/>
	</g>
</g>
<g>
	<g>
		<path d="M127.75,72.141H39.577c-4.151,0-7.515,3.365-7.515,7.515s3.364,7.515,7.515,7.515h88.172c4.151,0,7.515-3.365,7.515-7.515
			S131.901,72.141,127.75,72.141z"/>
	</g>
</g>
<g>
	<g>
		<path d="M199.89,72.141h-40.078c-4.151,0-7.515,3.365-7.515,7.515s3.364,7.515,7.515,7.515h40.078
			c4.151,0,7.515-3.365,7.515-7.515S204.042,72.141,199.89,72.141z"/>
	</g>
</g>
<g>
	<g>
		<circle cx="409.8" cy="79.656" r="7.515"/>
	</g>
</g>
<g>
	<g>
		<circle cx="441.362" cy="79.656" r="7.515"/>
	</g>
</g>
<g>
	<g>
		<circle cx="472.924" cy="79.656" r="7.515"/>
	</g>
</g>
<g>
	<g>
		<path d="M412.675,280.047c6.816-5.793,11.153-14.421,11.153-24.047c0-17.403-14.159-31.562-31.562-31.562h-96.689v-32.564
			c0-30.663-24.946-55.609-55.609-55.609c-2.51,0-5.019,0-7.529,0c-4.02,0-7.591,2.652-7.971,6.834l-6.028,66.302
			c-0.78,8.572-7.858,15.035-16.466,15.035h-10.602v-16.532c0-4.15-3.364-7.515-7.515-7.515h-72.141
			c-4.151,0-7.515,3.365-7.515,7.515v224.438c0,4.15,3.364,7.515,7.515,7.515h72.141c4.151,0,7.515-3.365,7.515-7.515v-16.532h23.34
			l20.944,14.672c1.254,0.876,2.782,1.36,4.312,1.36h120.234c17.403,0,31.562-14.159,31.562-31.562c0-6.73-2.124-12.97-5.728-18.098
			c12.618-4.134,21.759-16.014,21.759-29.996c0-6.73-2.124-12.97-5.728-18.098c12.618-4.134,21.759-16.014,21.759-29.996
			C423.828,294.468,419.491,285.84,412.675,280.047z M176.344,424.83h-57.112V215.421h57.112V424.83z M344.172,287.562h48.094
			c9.116,0,16.532,7.417,16.532,16.532s-7.417,16.532-16.532,16.532h-48.094c-4.151,0-7.515,3.365-7.515,7.515
			c0,4.15,3.364,7.515,7.515,7.515h32.063c9.116,0,16.532,7.417,16.532,16.532s-7.417,16.532-16.532,16.532h-32.063
			c-4.151,0-7.515,3.365-7.515,7.515c0,4.15,3.364,7.515,7.515,7.515h16.031c9.116,0,16.532,7.417,16.532,16.532
			s-7.417,16.532-16.532,16.532H242.338l-20.944-14.672c-1.263-0.886-2.768-1.36-4.311-1.36h-25.709V239.468h10.603
			c16.431,0,29.945-12.34,31.432-28.704l5.407-59.468h1.153c22.376,0,40.579,18.204,40.579,40.579v40.078
			c0,4.15,3.364,7.515,7.515,7.515h104.203c9.116,0,16.532,7.417,16.532,16.532c0,9.116-7.417,16.532-16.532,16.532h-48.094
			c-4.151,0-7.515,3.365-7.515,7.515C336.658,284.197,340.021,287.562,344.172,287.562z"/>
	</g>
</g>
<g>
</g>
<g>
</g>
<g>
</g>
<g>
</g>
<g>
</g>
<g>
</g>
<g>
</g>
<g>
</g>
<g>
</g>
<g>
</g>
<g>
</g>
<g>
</g>
<g>
</g>
<g>
</g>
<g>
</g>
</svg>
