<?xml version="1.0" encoding="iso-8859-1"?>
<!-- Generator: Adobe Illustrator 19.0.0, SVG Export Plug-In . SVG Version: 6.00 Build 0)  -->
<svg version="1.1" id="Capa_1" xmlns="http://www.w3.org/2000/svg" xmlns:xlink="http://www.w3.org/1999/xlink" x="0px" y="0px"
	 viewBox="0 0 512 512" style="enable-background:new 0 0 512 512;" xml:space="preserve">
<g>
	<g>
		<path d="M352.972,46.808C322.788,16.623,282.656,0,239.969,0s-82.82,16.623-113.005,46.808c-2.935,2.935-2.935,7.693,0,10.627
			c2.935,2.935,7.693,2.935,10.628,0c27.345-27.345,63.704-42.406,102.377-42.406c38.672,0,75.032,15.06,102.377,42.406
			c3.057,3.056,8.216,2.851,11.027-0.431C355.891,54.064,355.709,49.544,352.972,46.808z"/>
	</g>
</g>
<g>
	<g>
		<path d="M290.626,109.155c-13.531-13.531-31.522-20.983-50.657-20.983s-37.126,7.452-50.657,20.983
			c-2.935,2.935-2.935,7.692,0,10.627c2.935,2.936,7.693,2.935,10.627,0c10.693-10.692,24.91-16.58,40.03-16.58
			s29.337,5.889,40.03,16.58c1.467,1.468,3.39,2.201,5.313,2.201C291.883,121.983,295.256,113.784,290.626,109.155z"/>
	</g>
</g>
<g>
	<g>
		<path d="M318.965,80.816c-21.1-21.101-49.155-32.722-78.996-32.722s-57.896,11.621-78.996,32.722
			c-2.935,2.935-2.935,7.693,0,10.627c2.935,2.935,7.693,2.935,10.627,0c18.263-18.262,42.543-28.319,68.37-28.319
			s50.107,10.058,68.37,28.319c1.467,1.468,3.391,2.201,5.313,2.201C320.223,93.644,323.595,85.445,318.965,80.816z"/>
	</g>
</g>
<g>
	<g>
		<path d="M239.969,128.25c-17.403,0-31.562,14.159-31.562,31.562s14.159,31.562,31.562,31.562s31.562-14.159,31.562-31.562
			S257.372,128.25,239.969,128.25z M239.969,176.344c-9.116,0-16.532-7.417-16.532-16.532s7.417-16.532,16.532-16.532
			s16.532,7.417,16.532,16.532S249.085,176.344,239.969,176.344z"/>
	</g>
</g>
<g>
	<g>
		<path d="M412.675,352.188c6.816-5.793,11.153-14.421,11.153-24.047c0-17.403-14.159-31.562-31.562-31.562h-48.094
			c-4.15,0-7.515,3.365-7.515,7.515s3.365,7.515,7.515,7.515h48.094c9.116,0,16.532,7.417,16.532,16.532
			c0,9.116-7.417,16.532-16.532,16.532h-48.094c-4.15,0-7.515,3.365-7.515,7.515s3.365,7.515,7.515,7.515h48.094
			c9.116,0,16.532,7.417,16.532,16.532c0,9.116-7.417,16.532-16.532,16.532h-16.031h-32.063c-4.15,0-7.515,3.365-7.515,7.515
			s3.365,7.515,7.515,7.515h32.063c9.116,0,16.532,7.417,16.532,16.532c0,9.116-7.417,16.532-16.532,16.532h-16.031h-16.031
			c-4.15,0-7.515,3.365-7.515,7.515s3.365,7.515,7.515,7.515h16.031c9.116,0,16.532,7.417,16.532,16.532
			c0,9.116-7.417,16.532-16.532,16.532H226.307l-20.944-14.672c-1.263-0.886-2.769-1.36-4.311-1.36h-25.709V311.609h24.548
			c12.983,0,23.546-10.563,23.546-23.546v-64.626h0.501c22.376,0,40.579,18.204,40.579,40.579v40.078
			c0,4.15,3.365,7.515,7.515,7.515h36.163c4.15,0,7.515-3.365,7.515-7.515s-3.365-7.515-7.515-7.515h-28.648v-32.564
			c0-30.663-24.946-55.609-55.609-55.609c-2.542,0-5.084-0.008-7.626,0c-4.234,0.014-7.904,3.105-7.904,7.515v72.141
			c0,4.696-3.82,8.517-8.517,8.517h-24.548v-16.532c0-4.15-3.365-7.515-7.515-7.515H95.687c-4.15,0-7.515,3.365-7.515,7.515v224.438
			c0,4.15,3.365,7.515,7.515,7.515h72.141c4.15,0,7.515-3.365,7.515-7.515v-16.532h23.339l20.944,14.672
			c1.257,0.874,2.78,1.36,4.313,1.36h136.265c17.403,0,31.562-14.159,31.562-31.562c0-6.73-2.124-12.97-5.728-18.098
			c12.618-4.134,21.759-16.014,21.759-29.996c0-6.73-2.124-12.97-5.728-18.098c12.618-4.134,21.759-16.014,21.759-29.996
			C423.828,366.609,419.491,357.981,412.675,352.188z M160.313,496.971h-57.112V287.562h57.112V496.971z"/>
	</g>
</g>
<g>
</g>
<g>
</g>
<g>
</g>
<g>
</g>
<g>
</g>
<g>
</g>
<g>
</g>
<g>
</g>
<g>
</g>
<g>
</g>
<g>
</g>
<g>
</g>
<g>
</g>
<g>
</g>
<g>
</g>
</svg>
