<?xml version="1.0" encoding="iso-8859-1"?>
<!-- Generator: Adobe Illustrator 19.0.0, SVG Export Plug-In . SVG Version: 6.00 Build 0)  -->
<svg version="1.1" id="Capa_1" xmlns="http://www.w3.org/2000/svg" xmlns:xlink="http://www.w3.org/1999/xlink" x="0px" y="0px"
	 viewBox="0 0 512 512" style="enable-background:new 0 0 512 512;" xml:space="preserve">
<g>
	<g>
		<path d="M383.75,231.953c0-12.983-10.563-23.546-23.546-23.546h-72.642v-16.532c0-21.823-17.755-39.577-39.577-39.577h-8.016
			c-4.151,0-7.515,3.365-7.515,7.515v48.094c0,0.281-0.216,0.501-0.493,0.501h-24.556v-8.517c0-4.15-3.364-7.515-7.515-7.515
			h-48.094c-4.151,0-7.515,3.365-7.515,7.515v144.282c0,4.15,3.364,7.515,7.515,7.515h48.094c4.151,0,7.515-3.365,7.515-7.515
			v-8.517h21.436l13.83,13.83c1.393,1.393,3.345,2.201,5.314,2.201h96.188c12.983,0,23.546-10.563,23.546-23.546
			c0-4.365-1.198-8.456-3.277-11.964c6.766-4.14,11.292-11.601,11.292-20.098c0-4.365-1.198-8.456-3.277-11.964
			c6.767-4.14,11.293-11.601,11.293-20.098c0-6.189-2.404-11.824-6.322-16.031C381.346,243.777,383.75,238.142,383.75,231.953z
			 M192.376,336.658h-33.065V207.405h33.065V336.658z M336.157,255.499h24.047c4.696,0,8.517,3.82,8.517,8.517
			c0,4.696-3.82,8.517-8.517,8.517h-24.047c-4.151,0-7.515,3.365-7.515,7.515c0,4.15,3.364,7.515,7.515,7.515h16.031
			c4.696,0,8.517,3.82,8.517,8.517c0,4.696-3.82,8.517-8.517,8.517h-16.031c-4.151,0-7.515,3.365-7.515,7.515
			c0,4.15,3.364,7.515,7.515,7.515h8.016c4.696,0,8.517,3.82,8.517,8.517c0,4.696-3.82,8.517-8.517,8.517h-93.075l-13.83-13.83
			c-1.41-1.41-3.32-2.201-5.314-2.201h-24.548v-97.19h24.556c8.559,0,15.522-6.967,15.522-15.53v-40.579h0.501
			c13.536,0,24.548,11.013,24.548,24.548v24.047c0,4.15,3.364,7.515,7.515,7.515h80.157c4.696,0,8.517,3.82,8.517,8.517
			s-3.82,8.517-8.517,8.517h-24.047c-4.151,0-7.515,3.365-7.515,7.515C328.642,252.134,332.005,255.499,336.157,255.499z"/>
	</g>
</g>
<g>
	<g>
		<path d="M360.475,104.688c-3.413-2.362-8.093-1.508-10.455,1.905c-2.361,3.414-1.508,8.095,1.905,10.455
			C397.576,148.626,424.83,200.571,424.83,256c0,93.093-75.737,168.83-168.83,168.83S87.17,349.093,87.17,256
			S162.907,87.17,256,87.17c24.149,0,47.463,4.989,69.293,14.828c3.781,1.705,8.233,0.021,9.939-3.763
			c1.705-3.783,0.021-8.233-3.763-9.938C307.684,77.577,282.291,72.141,256,72.141C154.619,72.141,72.141,154.62,72.141,256
			S154.619,439.859,256,439.859S439.859,357.38,439.859,256C439.859,195.637,410.183,139.073,360.475,104.688z"/>
	</g>
</g>
<g>
	<g>
		<path d="M504.485,248.485h-8.645c-1.873-61.281-26.609-118.621-70.157-162.169S324.795,18.032,263.515,16.16V7.515
			C263.515,3.365,260.151,0,256,0s-7.515,3.365-7.515,7.515v8.645c-61.281,1.873-118.621,26.609-162.169,70.157
			S18.032,187.205,16.16,248.485H7.515C3.364,248.485,0,251.85,0,256s3.364,7.515,7.515,7.515h8.645
			c1.873,61.281,26.609,118.621,70.157,162.169s100.887,68.284,162.169,70.157v8.645c0,4.15,3.364,7.515,7.515,7.515
			s7.515-3.365,7.515-7.515v-8.645c61.281-1.873,118.621-26.609,162.169-70.157c43.549-43.548,68.284-100.888,70.157-162.169h8.645
			c4.151,0,7.515-3.365,7.515-7.515S508.636,248.485,504.485,248.485z M464.407,263.515H480.8
			c-3.897,118.07-99.216,213.389-217.285,217.285v-16.393c0-4.15-3.364-7.515-7.515-7.515s-7.515,3.365-7.515,7.515V480.8
			C130.416,476.903,35.097,381.584,31.2,263.515h16.393c4.151,0,7.515-3.365,7.515-7.515s-3.364-7.515-7.515-7.515H31.2
			C35.097,130.416,130.416,35.097,248.485,31.2v16.393c0,4.15,3.364,7.515,7.515,7.515s7.515-3.365,7.515-7.515V31.2
			c118.07,3.897,213.389,99.216,217.285,217.285h-16.393c-4.151,0-7.515,3.365-7.515,7.515S460.256,263.515,464.407,263.515z"/>
	</g>
</g>
<g>
</g>
<g>
</g>
<g>
</g>
<g>
</g>
<g>
</g>
<g>
</g>
<g>
</g>
<g>
</g>
<g>
</g>
<g>
</g>
<g>
</g>
<g>
</g>
<g>
</g>
<g>
</g>
<g>
</g>
</svg>
